<svg xmlns="http://www.w3.org/2000/svg" width="24" height="24" viewBox="0 0 24 24" fill="none" stroke="currentColor" stroke-width="1.6" stroke-linecap="round" stroke-linejoin="round">
  <path d="M12 2C6.48 2 2 6.48 2 12c0 5.52 4.48 10 10 10 1.1 0 2-.9 2-2 0-.51-.2-.98-.52-1.32-.32-.33-.51-.79-.51-1.28 0-1.1.9-2 2-2h2.4c3.64 0 6.63-2.99 6.63-6.63C22 5.99 17.52 2 12 2Z" fill="currentColor" fill-opacity="0.08"/>
  <path d="M12 2C6.48 2 2 6.48 2 12c0 5.52 4.48 10 10 10 1.1 0 2-.9 2-2 0-.51-.2-.98-.52-1.32-.32-.33-.51-.79-.51-1.28 0-1.1.9-2 2-2h2.4c3.64 0 6.63-2.99 6.63-6.63C22 5.99 17.52 2 12 2Z"/>
  <circle cx="7.5" cy="10.5" r="1.5" fill="currentColor" stroke="none"/>
  <circle cx="10.5" cy="6.5" r="1.5" fill="currentColor" stroke="none"/>
  <circle cx="15.5" cy="7.5" r="1.5" fill="currentColor" stroke="none"/>
  <circle cx="17.5" cy="12.5" r="1.5" fill="currentColor" stroke="none"/>
</svg>
