<svg xmlns="http://www.w3.org/2000/svg" width="24" height="24" viewBox="0 0 24 24" fill="none" stroke="currentColor" stroke-width="1.5" stroke-linecap="round" stroke-linejoin="round">
  <path d="M12 2C6.48 2 2 6.48 2 12s4.48 10 10 10c1.05 0 1.9-.85 1.9-1.9 0-.48-.19-.92-.51-1.25a1.86 1.86 0 0 1-.49-1.25c0-1.05.85-1.9 1.9-1.9h2.3c3.8 0 6.9-3.1 6.9-6.9 0-4.86-5.37-8.8-12-8.8Z"/>
  <circle cx="7.5" cy="10.5" r="1.5" fill="currentColor" stroke="none"/>
  <circle cx="10.5" cy="6.5" r="1.5" fill="currentColor" stroke="none"/>
  <circle cx="15.5" cy="7.5" r="1.5" fill="currentColor" stroke="none"/>
  <circle cx="17.5" cy="12.5" r="1.5" fill="currentColor" stroke="none"/>
</svg>