<svg xmlns="http://www.w3.org/2000/svg" width="24" height="24" viewBox="0 0 24 24" fill="none" stroke="currentColor" stroke-width="1.5" stroke-linecap="round" stroke-linejoin="round">
  <path d="M4.5 16.5c-1.5 1.26-2 5-2 5s3.74-.5 5-2l.5-.5a2.5 2.5 0 0 0 3.7-3.7l.5-.5c1.5-1.26 5-2 5-2s-3.74.5-5 2l-.5.5c-1 .6-2 .6-3 .6A4.14 4.14 0 0 0 8 13.9l-.5.5c-1.26 1.5-2 5-2 5Z"/>
  <path d="M12 12a2 2 0 1 0 0-4 2 2 0 0 0 0 4Z"/>
  <path d="M16 16c1.5 1.5 4.5 1 4.5 1s-.5-3-2-4.5"/>
  <path d="M8 8C6.5 6.5 3.5 7 3.5 7s.5 3 2 4.5"/>
</svg>